<?xml version="1.0" encoding="UTF-8" standalone="no"?>
<!-- Created with Inkscape (http://www.inkscape.org/) -->

<svg
   width="210mm"
   height="297mm"
   viewBox="0 0 210 297"
   version="1.1"
   id="svg1"
   xml:space="preserve"
   inkscape:version="1.4 (86a8ad7, 2024-10-11)"
   sodipodi:docname="monkey.svg"
   xmlns:inkscape="http://www.inkscape.org/namespaces/inkscape"
   xmlns:sodipodi="http://sodipodi.sourceforge.net/DTD/sodipodi-0.dtd"
   xmlns:xlink="http://www.w3.org/1999/xlink"
   xmlns="http://www.w3.org/2000/svg"
   xmlns:svg="http://www.w3.org/2000/svg"><sodipodi:namedview
     id="namedview1"
     pagecolor="#ffffff"
     bordercolor="#666666"
     borderopacity="1.0"
     inkscape:showpageshadow="2"
     inkscape:pageopacity="0.0"
     inkscape:pagecheckerboard="0"
     inkscape:deskcolor="#d1d1d1"
     inkscape:document-units="mm"
     inkscape:zoom="0.72604517"
     inkscape:cx="482.06367"
     inkscape:cy="382.20762"
     inkscape:window-width="1920"
     inkscape:window-height="1017"
     inkscape:window-x="-8"
     inkscape:window-y="-8"
     inkscape:window-maximized="1"
     inkscape:current-layer="layer2"
     showgrid="false" /><defs
     id="defs1"><inkscape:perspective
       sodipodi:type="inkscape:persp3d"
       inkscape:vp_x="0 : 148.5 : 1"
       inkscape:vp_y="0 : 1000 : 0"
       inkscape:vp_z="210 : 148.5 : 1"
       inkscape:persp3d-origin="105 : 99 : 1"
       id="perspective1" /><linearGradient
       id="linearGradient29"
       inkscape:collect="always"><stop
         style="stop-color:#008000;stop-opacity:1;"
         offset="0"
         id="stop29" /><stop
         style="stop-color:#008000;stop-opacity:0;"
         offset="1"
         id="stop30" /></linearGradient><linearGradient
       inkscape:collect="always"
       xlink:href="#linearGradient29"
       id="linearGradient30"
       x1="110.28204"
       y1="258.37152"
       x2="-15.173181"
       y2="224.48073"
       gradientUnits="userSpaceOnUse" /></defs><path
     style="fill:#d7976c;fill-opacity:1;stroke:#000000;stroke-width:0.264583px;stroke-linecap:butt;stroke-linejoin:miter;stroke-opacity:1"
     d="m 90.388655,243.84976 c 2.009199,8.13722 -4.009631,11.1248 -4.009631,11.1248 l -11.142263,2.00047 -5.036077,-0.63333 1.594245,-1.14436 -0.524138,-2.12276 1.061377,-0.26207 9.198589,-2.27126 1.694702,-5.29815 z"
     id="path28"
     transform="rotate(13.869751,195.8737,109.34792)" /><path
     style="fill:#d7976c;fill-opacity:1;stroke:#000000;stroke-width:0.252479px;stroke-linecap:butt;stroke-linejoin:miter;stroke-opacity:1"
     d="m 96.096369,210.72671 c 0,8.39544 5.963231,9.85551 5.963231,9.85551 l 10.27001,-0.73004 4.30678,-1.82509 -1.65645,-0.73004 -1e-5,-2.19012 h -0.99387 l -8.61355,1e-5 -2.65033,-4.74525 z"
     id="path28-2"
     inkscape:transform-center-x="-8.5090359"
     inkscape:transform-center-y="-2.5537247" /><g
     inkscape:label="Layer 1"
     inkscape:groupmode="layer"
     id="layer1"><g
       id="g21"
       transform="rotate(13.869751,195.87369,109.34792)"><path
         style="fill:#784421;fill-opacity:1;stroke:#000000;stroke-width:0.264583px;stroke-linecap:butt;stroke-linejoin:miter;stroke-opacity:1"
         d="m 86.776442,209.45769 c -11.950301,6.32895 -12.159943,17.64157 -12.159943,17.64157 l 2.515872,16.27006 1.310347,5.30687 1.410803,1.1531 2.127117,-2.02666 1.589881,0.35816 0.886664,-0.96966 2.651256,0.0961 1.157463,-2.91332 2.2931,1.68597 1.24482,-2.55954 -0.978386,2.11839 1.68597,-2.2931 -3.044378,-16.89029 5.782957,-13.0641 z"
         id="path27" /><path
         style="fill:#784421;fill-opacity:1;stroke:#000000;stroke-width:0.257287px;stroke-linecap:butt;stroke-linejoin:miter;stroke-opacity:1"
         d="m 110.24528,199.80595 c 12.82732,0.21177 18.1244,10.16732 18.1244,10.16732 l 5.26984,15.594 1.31064,5.30811 -0.6539,1.66325 -2.6908,-0.83739 -1.16313,1.03809 -1.17817,-0.46 -2.16654,1.28586 -2.28398,-2.06419 -1.14809,2.53618 -2.19662,-1.71032 1.77476,1.43903 -2.44371,-1.27386 -5.11011,-16.38433 -10.73597,-8.98804 z"
         id="path27-2" /><ellipse
         style="fill:#784421;stroke-width:0.283259"
         id="path3"
         cx="95.295097"
         cy="123.68993"
         rx="23.869326"
         ry="30.034727" /><ellipse
         style="fill:#784421;fill-opacity:1;stroke-width:0.264583"
         id="path19"
         cx="96.206131"
         cy="175.64908"
         rx="23.322701"
         ry="40.814724" /><ellipse
         style="fill:#784421;stroke-width:0.264583"
         id="path4"
         cx="93.655212"
         cy="127.91042"
         rx="2.5509202"
         ry="0.3644172" /><ellipse
         style="fill:#784421;stroke-width:0.369901"
         id="path5"
         cx="69.785889"
         cy="116.79568"
         rx="6.7417178"
         ry="7.834969" /><ellipse
         style="fill:#784421;stroke-width:0.369901"
         id="path5-3"
         cx="120.25241"
         cy="117.00266"
         rx="6.7417178"
         ry="7.834969" /><ellipse
         style="fill:#d7976c;fill-opacity:1;stroke-width:0.376646"
         id="path6"
         cx="95.112885"
         cy="119.34661"
         rx="18.949694"
         ry="9.6570559" /><ellipse
         style="fill:#d7976c;fill-opacity:1;stroke-width:0.46264"
         id="path7"
         cx="95.295082"
         cy="134.46994"
         rx="14.030061"
         ry="13.847853" /><ellipse
         style="fill:#000000;fill-opacity:1;stroke-width:0.264583"
         id="path8"
         cx="90.922081"
         cy="130.87131"
         rx="1.1843559"
         ry="0.95659506" /><ellipse
         style="fill:#000000;fill-opacity:1;stroke-width:0.264583"
         id="path8-6"
         cx="100.07091"
         cy="131.06668"
         rx="1.1843559"
         ry="0.95659506" /><ellipse
         style="fill:#f9f9f9;fill-opacity:1;stroke-width:0.264583"
         id="path9"
         cx="87.596779"
         cy="119.02776"
         rx="2.0498466"
         ry="2.9608896" /><ellipse
         style="fill:#f9f9f9;fill-opacity:1;stroke-width:0.264583"
         id="path9-6"
         cx="103.94934"
         cy="118.95203"
         rx="2.0498466"
         ry="2.9608896" /><ellipse
         style="fill:#1a1a1a;fill-opacity:1;stroke-width:0.264583"
         id="path11"
         cx="86.594627"
         cy="120.121"
         rx="0.86549079"
         ry="1.4121165" /><ellipse
         style="fill:#1a1a1a;fill-opacity:1;stroke-width:0.264583"
         id="path11-4"
         cx="103.09513"
         cy="120.02513"
         rx="0.86549079"
         ry="1.4121165" /><ellipse
         style="fill:#f9f9f9;fill-opacity:1;stroke-width:0.264583"
         id="path12"
         cx="86.514915"
         cy="120.31461"
         rx="0.23914877"
         ry="0.53523767" /><ellipse
         style="fill:#f9f9f9;fill-opacity:1;stroke-width:0.264583"
         id="path13"
         cx="102.94785"
         cy="120.16656"
         rx="0.27331287"
         ry="0.45552146" /><ellipse
         style="fill:#d7976c;fill-opacity:1;stroke-width:0.347596"
         id="path14-3"
         cx="121.51059"
         cy="116.61914"
         rx="3.3498645"
         ry="4.5094328" /><ellipse
         style="fill:#d7976c;fill-opacity:1;stroke-width:0.347596"
         id="path14-3-1"
         cx="68.658089"
         cy="116.03476"
         rx="3.3498645"
         ry="4.5094328" /><path
         style="fill:#d7976c;fill-opacity:1;stroke-width:0.264583"
         id="path15"
         d="m 88.355545,140.54529 c 0.434041,0.37837 0.854096,0.76715 1.341146,1.07736 0.484968,0.26865 1.012312,0.44214 1.538094,0.61006 0.38639,0.14767 0.797589,0.19992 1.196105,0.30326 0.437219,0.11163 0.882195,0.18903 1.326692,0.26504 0.580438,0.10663 1.164966,0.18768 1.749028,0.27115 0.416838,0.0797 0.834771,0.14268 1.257943,0.17437 0.448974,0.0229 0.899139,0.0169 1.348645,0.0199 0.660233,0.035 1.285338,-0.18477 1.896002,-0.40782 0.3857,-0.16449 0.78541,-0.31098 1.14955,-0.52206 3.60671,-2.09073 2.68395,-1.01183 3.73782,-2.30901 0.29458,-0.38276 0.52923,-0.807 0.78461,-1.21604 0,0 -3.54487,1.56339 -3.54487,1.56339 v 0 c -0.25087,0.40077 -0.49844,0.81014 -0.84445,1.13826 -1.20769,0.90555 -0.30041,0.21017 2.9075,-1.62862 0.0813,-0.0466 -0.16023,0.0975 -0.24222,0.14294 -0.2942,0.16313 -0.59848,0.30974 -0.90828,0.44055 -0.54016,0.23664 -1.16487,0.48475 -1.76133,0.49211 -0.44244,0.003 -0.88487,0.002 -1.327199,-0.009 -0.422675,-0.0136 -0.843526,-0.0494 -1.260041,-0.12591 -0.575424,-0.0931 -1.158788,-0.13488 -1.72805,-0.26749 -0.43371,-0.0922 -0.87376,-0.1517 -1.306867,-0.248 -0.395525,-0.10301 -0.791077,-0.19016 -1.188061,-0.2842 -0.505806,-0.15807 -1.030158,-0.27285 -1.49784,-0.53408 -0.485236,-0.25078 -0.89298,-0.60305 -1.257319,-1.00886 z" /><circle
         id="path16"
         style="fill:#d7976c;stroke:#000000;stroke-width:0.264583"
         cx="67.51265"
         cy="147.6517"
         r="0.017161487" /><path
         style="fill:none;stroke:#000000;stroke-width:0.264583px;stroke-linecap:butt;stroke-linejoin:miter;stroke-opacity:1"
         d="m 90.188649,140.30777 c 8.374661,2.8345 10.951481,-0.25768 10.951481,-0.25768"
         id="path17" /><path
         style="fill:none;stroke:#000000;stroke-width:0.264583px;stroke-linecap:butt;stroke-linejoin:miter;stroke-opacity:1"
         d="M 108.35522,160.5358 Z"
         id="path18" /><ellipse
         style="fill:#d7976c;fill-opacity:1;stroke-width:0.268772"
         id="path20"
         cx="96.752762"
         cy="180.75092"
         rx="17.674232"
         ry="31.339876" /></g><path
       style="fill:#784421;fill-opacity:1;stroke-width:0.364416"
       d="m 106.8134,133.46778 c -0.1363,-1.65354 -0.33425,-3.5804 -0.43989,-4.2819 -0.18802,-1.2486 -0.12061,-1.32919 3.20058,-3.82638 13.35105,-10.03863 23.21153,-21.3742 28.60306,-32.881956 2.11632,-4.51711 3.22573,-8.51886 4.1122,-14.83297 l 0.74004,-5.27112 -1.81922,-3.02477 c -1.00056,-1.66361 -1.81952,-3.3461 -1.81991,-3.73886 -2.6e-4,-0.39275 0.43166,-2.23761 0.96009,-4.09969 0.70302,-2.47729 1.11853,-3.38522 1.54877,-3.3842 1.09802,0.003 11.14705,2.14507 12.88707,2.74753 0.95204,0.32964 1.73098,0.75661 1.73098,0.94884 0,0.19222 -0.4013,0.94006 -0.89178,1.66187 -0.49048,0.72181 -1.09599,2.10918 -1.34559,3.08305 -0.48129,1.87787 -0.37469,1.80628 -3.98271,2.67476 l -0.93604,0.22531 -0.0194,10.8185 c -0.0202,11.23434 -0.30617,14.45508 -1.96377,22.115426 -1.36965,6.3296 -4.86769,11.6772 -11.27666,17.23908 -3.59054,3.11597 -10.60445,7.87233 -15.91002,10.78911 -3.54228,1.9474 -12.25027,6.04481 -12.84667,6.04481 -0.1558,0 -0.39479,-1.35289 -0.53109,-3.00644 z"
       id="path23" /><path
       style="fill:#784421;fill-opacity:1;stroke-width:0.372883"
       d="m 77.723011,120.49526 c 0.08118,1.65354 0.216736,3.5804 0.301239,4.2819 0.150397,1.2486 0.07682,1.32919 -3.49341,3.82638 -14.35218,10.03863 -25.097968,21.37419 -31.171141,32.88195 -2.383884,4.51711 -3.694349,8.51886 -4.857437,14.83297 l -0.970966,5.27112 1.792186,3.02477 c 0.98569,1.66361 1.780541,3.3461 1.766335,3.73886 -0.01434,0.39275 -0.535213,2.23761 -1.157771,4.09969 -0.828247,2.47729 -1.297073,3.38522 -1.747499,3.3842 -1.149523,-0.003 -11.591222,-2.14507 -13.390617,-2.74753 -0.984527,-0.32964 -1.784195,-0.75661 -1.777042,-0.94884 0.0072,-0.19222 0.455144,-0.94006 0.995538,-1.66187 0.540395,-0.72181 1.225992,-2.10918 1.523562,-3.08305 0.57379,-1.87787 0.459515,-1.80628 4.269453,-2.67476 l 0.988425,-0.22531 0.422866,-10.8185 c 0.439179,-11.23434 0.858435,-14.45508 2.878995,-22.11543 1.669558,-6.32959 5.531015,-11.67719 12.448208,-17.23907 3.875266,-3.11597 11.395863,-7.87233 17.059367,-10.78911 3.781254,-1.9474 13.051045,-6.04481 13.67548,-6.04481 0.163124,0 0.363007,1.35289 0.444185,3.00644 z"
       id="path23-4" /></g><path
     style="fill:url(#linearGradient30);stroke:#000000;stroke-width:0.264583px;stroke-linecap:butt;stroke-linejoin:miter;stroke-opacity:1"
     d="m 1.4576687,224.11656 35.7128843,1.09325 19.314109,-1.45766 21.500613,-1.09326 37.170555,-1.45767 c 0,0 6.92392,-5.10184 12.7546,-5.10184 5.83067,0 21.50061,0 21.50061,0 l 25.14479,-2.1865 20.04294,2.55092 15.66994,1.82209 0.72883,52.47607 -1.45767,25.14478 -210.26870434,0.36441 z"
     id="path29" /><g
     inkscape:groupmode="layer"
     id="layer2"
     inkscape:label="Layer 2" /></svg>
